<?xml version="1.0" encoding="UTF-8"?>
<svg  version="1.1" viewBox="0 0 776.82001 532.21997" xml:space="preserve" xmlns="http://www.w3.org/2000/svg">
<style type="text/css">
	.st0{fill:#0C142A;}
	.st1{fill:#FFFFFF;}
	.st2{opacity:0.2;fill:#0C142A;enable-background:new    ;}
</style>
<g transform="translate(-611.59,-728.74)">
		<path class="st0" d="m1000.2 728.74-73.26 143.93h44.39l28.64-56.27 28.25 56.27h44.23zm7.47 56.66-9.53 7.98-3.11-13.68-16.11 17.92 21.52-42.26 24.44 48.69z"/>
		<polygon class="st1" points="978.94 797.62 1000.5 755.35 1024.9 804.04 1007.7 785.4 998.17 793.38 995.05 779.7"/>
		<path class="st0" d="m1028.2 980.46-28.25 56.27-28.64-56.27h-44.39l73.26 143.93 72.26-143.93zm-27.79 117.31-21.52-42.26 16.11 17.92 3.11-13.68 9.53 7.98 17.2-18.64z"/>
		<polygon class="st1" points="998.17 1059.8 1007.7 1067.7 1024.9 1049.1 1000.5 1097.8 978.94 1055.5 995.05 1073.4"/>
		<polygon class="st1" points="1114.3 887.56 887.36 925.98 885.68 965.57 1112.7 926.54"/>
	<ellipse class="st2" cx="1e3" cy="1136.6" rx="93.78" ry="7.83"/>
</g>
<g transform="translate(-611.59,-728.74)">
	<path class="st0" d="m645.2 1183.8h17.04v10.05h-20.25v65.79h-10.15v-65.79h-20.25v-10.05h17.04z"/>
	<path class="st0" d="m689.92 1183.8v32.89h33.81v-32.89h10.1v75.84h-10.1v-32.89h-33.81v32.89h-10.1v-75.84z"/>
	<path class="st0" d="m797.63 1183.7v10.1h-33v22.95h24.73v10.1h-24.73v22.95h33v10.1h-43.15v-76.2z"/>
	<path class="st0" d="m864.12 1183.8 17.39 47.48 15.25-44.88 15.2 44.88 17.34-47.48h10.97l-28.26 77.12-15.45-46.26-15.15 46.16-28.2-77.02z"/>
	<path class="st0" d="m1001 1183.7v10.1h-33v22.95h24.73v10.1h-24.73v22.95h33v10.1h-43.15v-76.2z"/>
	<path class="st0" d="m1032.6 1183.8h5.71c2.58 0 5.12 0.51 7.6 1.53 2.45 1.05 4.59 2.52 6.43 4.39 1.8 1.84 3.2 3.86 4.18 6.07 0.95 2.28 1.43 4.73 1.43 7.34 0 1.26-0.26 2.79-0.77 4.59-0.54 1.84-1.29 3.59-2.24 5.25l-1.68 3.01 3.16 1.43c1.05 0.51 2.11 1.09 3.16 1.73 0.85 0.58 1.6 1.17 2.24 1.79 2.11 2.21 3.72 4.68 4.85 7.4 1.12 2.65 1.68 5.53 1.68 8.62 0 3.13-0.56 6.02-1.68 8.67-1.12 2.75-2.74 5.2-4.85 7.34s-4.56 3.81-7.34 5c-2.75 1.12-5.61 1.68-8.57 1.68h-27.33v-75.84zm-3.98 31.26 3.32-0.15c1.22-0.07 2.89-0.17 5-0.31 0.48-0.03 0.9-0.05 1.28-0.05l0.2-0.05c1.6-0.2 2.84-0.51 3.72-0.92 1.09-0.51 2.19-1.33 3.32-2.45 0.95-1.02 1.68-2.14 2.19-3.37 0.51-1.22 0.77-2.55 0.77-3.98 0-1.39-0.26-2.7-0.77-3.93-0.51-1.19-1.24-2.31-2.19-3.37-0.92-0.88-2.01-1.61-3.26-2.19-1.22-0.51-2.52-0.77-3.88-0.77h-9.69v18.21zm0 34.89h17.28c1.6 0 3.21-0.32 4.85-0.97 1.63-0.68 3.01-1.61 4.13-2.81 1.12-1.09 2.06-2.5 2.81-4.23 0.65-1.67 0.97-3.33 0.97-5s-0.32-3.32-0.97-4.95c-0.68-1.63-1.61-3.06-2.81-4.28-1.26-1.22-2.6-2.16-4.03-2.81-1.56-0.75-3.14-1.17-4.74-1.28-1.73-0.1-3.39-0.14-4.97-0.13-1.58 0.02-3.17 0.04-4.77 0.08-0.78 0-1.56 0.01-2.32 0.03-0.77 0.02-1.5 0.03-2.22 0.03h-3.21v23.1z"/>
	<path class="st0" d="m1189.1 1259.7h-10.86l-5.61-12.5h-32.23l-5.61 12.5h-10.86l32.59-76.56zm-32.62-20.66h12.42c-2.07-4.76-4.14-9.88-6.2-15.35s-4.11-10.61-6.15-15.4c-2.07 4.79-4.16 9.93-6.25 15.4s-4.16 10.59-6.2 15.35z"/>
	<path class="st0" d="m1206.7 1238.2v-54.37h25.65c3.57 0 6.85 0.63 9.84 1.89 2.96 1.22 5.73 3.11 8.31 5.66 2.52 2.48 4.42 5.24 5.71 8.26 1.22 3.03 1.84 6.31 1.84 9.84 0 3.57-0.61 6.85-1.84 9.84-1.26 2.96-3.14 5.7-5.66 8.21-2.55 2.52-5.34 4.4-8.36 5.66-3.03 1.22-6.31 1.84-9.84 1.84h-15.5v24.63h-10.15zm10.15-13.21h3.16l12.34 0.05c2.18 0 4.16-0.37 5.97-1.12 1.77-0.71 3.45-1.85 5.05-3.42 1.46-1.53 2.58-3.21 3.37-5.05 0.78-1.73 1.17-3.72 1.17-5.97 0-2.18-0.39-4.15-1.17-5.92-0.68-1.7-1.8-3.38-3.37-5.05-1.5-1.53-3.16-2.69-5-3.47s-3.84-1.17-6.02-1.17h-15.5v27.94z"/>
	<path class="st0" d="m1318.8 1183.7v10.1h-33v22.95h24.73v10.1h-24.73v22.95h33v10.1h-43.15v-76.2z"/>
	<path class="st0" d="m1345 1183.8 13.11 22.9 2.75 4.79 2.75-4.79 13.16-22.9h11.63l-20.81 36.31-0.92 1.58 0.92 1.58 20.81 36.37h-11.63l-13.16-22.9-2.75-4.85-2.75 4.85-13.16 22.95-11.63-0.05 20.76-36.42 0.92-1.58-0.92-1.53-20.71-36.31z"/>
</g>
</svg>
